<svg id="Group_51" data-name="Group 51" xmlns="http://www.w3.org/2000/svg" width="18.226" height="21.601" viewBox="0 0 18.226 21.601">
  <defs>
    <style>
      .cls-1 {
        fill: #fff;
      }
    </style>
  </defs>
  <path id="Path_54" data-name="Path 54" class="cls-1" d="M58.226,19.069a.844.844,0,0,1-.844.844h-.844v.844a.844.844,0,1,1-1.688,0v-.844h-.844a.844.844,0,1,1,0-1.688h.844v-.844a.844.844,0,1,1,1.688,0v.844h.844A.844.844,0,0,1,58.226,19.069Zm0-13.163v8.1a.844.844,0,1,1-1.688,0V6.75H54.85V9.282a.844.844,0,0,1-1.688,0V6.75h-8.1V9.282a.844.844,0,1,1-1.688,0V6.75H41.688V19.913h8.944a.844.844,0,1,1,0,1.688H40.844A.844.844,0,0,1,40,20.757V5.906a.844.844,0,0,1,.844-.844h2.571a5.738,5.738,0,0,1,11.4,0h2.571A.844.844,0,0,1,58.226,5.906Zm-5.119-.844a4.05,4.05,0,0,0-7.987,0Z" transform="translate(-40)"/>
</svg>
